<?xml version="1.0" encoding="utf-8"?>
<!-- Generator: Adobe Illustrator 25.0.0, SVG Export Plug-In . SVG Version: 6.00 Build 0)  -->
<svg version="1.1" id="Layer_1" xmlns="http://www.w3.org/2000/svg" xmlns:xlink="http://www.w3.org/1999/xlink" x="0px" y="0px"
	 viewBox="0 0 284.3 221.4" style="enable-background:new 0 0 284.3 221.4;" xml:space="preserve">
<style type="text/css">
	.st0{fill:#231F20;}
	.st1{fill:#005B28;}
	.st2{fill:#00A762;}
</style>
<path d="M0,142.3l13.3-3.2V203c0,7,2.1,11.2,6.3,12.5c-2.1,3.9-5.6,5.8-10.5,5.8c-6,0-9-4.2-9-12.5L0,142.3z"/>
<path d="M28,220.3v-45.9h-7.2v-10.9h20.7v56.8H28z M34.8,141.5c4.3,0,7.7,3.4,7.7,7.7s-3.4,7.7-7.7,7.7c-4.3,0-7.7-3.4-7.7-7.7
	c0-2,0.8-4,2.3-5.4C30.9,142.3,32.8,141.5,34.8,141.5L34.8,141.5z"/>
<path d="M89.1,220.3v-32.8c0-4.9-0.9-8.4-2.8-10.6c-1.9-2.2-4.9-3.4-9.1-3.4c-2.2,0.1-4.3,0.6-6.2,1.7c-2,0.9-3.8,2.3-5.2,4.1v41
	H52.5v-56.8h9.6l2.4,5.3c3.6-4.3,8.9-6.4,16-6.4c6.8,0,12.1,2,16,6.1c3.9,4.1,5.9,9.7,5.9,17v34.9L89.1,220.3z"/>
<path d="M109.4,191.8c0-8.7,2.5-15.7,7.5-21.2s11.6-8.2,19.8-8.2c8.6,0,15.3,2.6,20.1,7.9c4.8,5.2,7.2,12.4,7.2,21.5
	c0,9.1-2.4,16.3-7.3,21.6c-4.9,5.3-11.5,8-20,8c-8.7,0-15.4-2.7-20.1-8.1C111.9,207.9,109.5,200.7,109.4,191.8L109.4,191.8z
	 M123.2,191.8c0,12.5,4.5,18.8,13.5,18.8c3.9,0.1,7.6-1.7,9.9-4.9c2.4-3.3,3.6-7.9,3.6-13.9c0-12.4-4.5-18.5-13.5-18.5
	c-3.9-0.1-7.6,1.7-9.9,4.9C124.4,181.4,123.2,185.9,123.2,191.8z"/>
<path d="M208.6,220.3v-3.4c-1.6,1.5-3.5,2.6-5.6,3.2c-2.6,0.9-5.3,1.4-8.1,1.4c-7.9,0-14.2-2.5-18.7-7.5s-6.8-12-6.8-21
	c0-9,2.6-16.3,7.8-21.9c5-5.6,12.1-8.7,19.6-8.5c4.1,0,8.1,0.9,11.8,2.7v-22.8l13.3-3.2v81.2L208.6,220.3z M208.6,177.1
	c-2.5-2.1-5.6-3.3-8.9-3.4c-5.3,0-9.4,1.6-12.3,4.9s-4.3,7.9-4.3,13.9c0,11.8,5.7,17.7,17.1,17.7c1.6-0.1,3.2-0.5,4.7-1.1
	c1.4-0.4,2.6-1.2,3.6-2.3V177.1z"/>
<path d="M283.1,196h-40.6c0.2,4.5,1.8,8.1,4.7,10.6c2.9,2.5,6.7,3.8,11.6,3.8c6,0,10.7-1.6,13.8-4.7l5.1,10.1
	c-4.7,3.8-11.6,5.7-20.9,5.7c-8.7,0-15.5-2.5-20.6-7.6c-5-5.1-7.6-12.2-7.6-21.2c0-9,2.8-16.2,8.3-21.8c5.2-5.4,12.4-8.5,19.9-8.4
	c8.2,0,14.9,2.5,19.9,7.4c5,4.9,7.5,11.2,7.5,18.8C284.1,191.1,283.8,193.6,283.1,196L283.1,196z M243,186h28
	c-0.9-8.3-5.5-12.5-13.8-12.5C249.6,173.5,244.9,177.7,243,186L243,186z"/>
<g>
	<path class="st0" d="M198.7,60l-18.8-10.4L164,59.3l-0.2,9.9l-7.7-5.1l-10.5,6.4l-0.5-10.8l-10.8-7.2l10.3-5.3c-0.1,0,0,1-1.5-35.4
		L118.8,0L85.6,10.3L93,46l11.1,8.6l-8.5,4l5.5,26.9l7.8,7.3l-5.6,3.4l4.3,20.8l17.5,18.5c0.1-0.1,1.8-1.5,22.5-17.9l-0.6-14.1
		l8.8,7.5c0.1-0.1,1.9-1.4,18.1-14.3l0.6-10.5l6.7,4.6c0.1-0.1,1.6-1.3,14.7-11.7L198.7,60z"/>
	<path class="st1" d="M181.4,91l1.7-19.8l-19-11.8l-0.4,19.3L181.4,91z"/>
	<path class="st1" d="M155.9,111.1V90.6L136.7,76l1.5,20.2L155.9,111.1z"/>
	<path class="st1" d="M125.2,135.6l-3.1-21l-18.7-18.4l4.3,20.8L125.2,135.6z"/>
	<path d="M183.1,71.2L198.7,60l-18.8-10.4L164,59.3L183.1,71.2z M155.9,90.6l19.3-13.9l-19.1-12.6L136.7,76L155.9,90.6z
		 M122.2,114.6L146.8,97l-19.1-15.6l-24.3,14.8L122.2,114.6z M116.5,76l28.7-16.3l-21.5-14.4L95.6,58.7L116.5,76z M109,24.8
		l34.2-13.1L118.8,0L85.6,10.3L109,24.8z"/>
	<g>
		<path class="st2" d="M196.1,79.3C181.6,90.8,181.3,91,181.4,91c1.8-20.7,1.6-19.8,1.7-19.8C199.6,59.4,198.6,60,198.7,60
			L196.1,79.3z"/>
		<path class="st2" d="M174.1,96.8c-17.9,14.2-18.2,14.3-18.1,14.3c-0.2-21.5-0.1-20.5,0-20.5c20.6-14.7,19.3-13.9,19.3-13.9
			L174.1,96.8z"/>
		<path class="st2" d="M147.7,117.7c-22.3,17.8-22.5,17.9-22.5,17.9c-3.2-21.6-3.1-21-3.1-21C148.4,95.9,146.7,97,146.8,97
			L147.7,117.7z"/>
		<path class="st2" d="M143.2,11.7c1.6,36.5,1.4,35.4,1.5,35.4c-29.6,15.4-30.2,15.6-30.1,15.6c-5.7-38.8-5.6-38-5.6-38L143.2,11.7z
			"/>
		<path class="st2" d="M145.2,59.7c1.2,27.6,1,26.7,1.1,26.7c-25.6,17.2-25.9,17.3-25.8,17.3c-4.1-28.4-4.1-27.7-4.1-27.7
			L145.2,59.7z"/>
	</g>
	<path class="st1" d="M114.5,62.8l-5.6-38L85.6,10.3L93,46L114.5,62.8z"/>
	<path class="st1" d="M120.6,103.8L116.5,76L95.6,58.7l5.6,26.9L120.6,103.8z"/>
</g>
</svg>
